<svg width="95" height="43" viewBox="0 0 95 43" fill="none" xmlns="http://www.w3.org/2000/svg">
<path d="M10.3218 10.5849C17.7958 -3.25115 82.1869 5.00586 86.2113 10.5849C90.2358 16.164 86.2113 30 86.2113 30H10.3218C10.3218 30 2.84779 24.421 10.3218 10.5849Z" fill="#95BA72"/>
<ellipse cx="78.6649" cy="17.6053" rx="1.00532" ry="1.29255" transform="rotate(42.2073 78.6649 17.6053)" fill="#DC685B"/>
<path d="M33.958 12.2997C33.6043 12.3616 33.2684 12.3082 32.9985 12.1472C32.7287 11.9863 32.5389 11.7261 32.4565 11.4041C32.3741 11.0822 32.4034 10.7151 32.5401 10.3557C32.6767 9.99631 32.9138 9.66321 33.2171 9.40436C33.5204 9.14551 33.8742 8.97428 34.2277 8.91532C34.5812 8.85636 34.916 8.91272 35.184 9.07629C35.452 9.23985 35.6393 9.50218 35.7189 9.82548C35.7985 10.1488 35.7663 10.5164 35.627 10.8753L34.0862 10.6087L33.958 12.2997Z" fill="#DC685B"/>
<path d="M49.4688 18.0445C49.1151 18.1063 48.7791 18.0529 48.5093 17.892C48.2394 17.731 48.0497 17.4708 47.9673 17.1489C47.8849 16.8269 47.9141 16.4598 48.0508 16.1004C48.1875 15.7411 48.4245 15.408 48.7278 15.1491C49.0311 14.8903 49.385 14.719 49.7385 14.6601C50.0919 14.6011 50.4268 14.6575 50.6948 14.821C50.9627 14.9846 51.15 15.2469 51.2296 15.5702C51.3092 15.8935 51.2771 16.2611 51.1377 16.6201L49.5969 16.3534L49.4688 18.0445Z" fill="#DC685B"/>
<path d="M73.094 4.0998C72.5717 5.39732 71.5 5.85245 71.9266 7.00015C72.3982 8.26865 75.1524 8.29854 75.1524 8.29854C75.1524 8.29854 79.3614 8.48489 76.3198 5.39819C73.2783 2.31149 73.6163 2.80228 73.094 4.0998Z" fill="#95BA72"/>
<path d="M55.8601 1.22742C55.3379 2.52494 54.2661 2.98008 54.6927 4.12777C55.1643 5.39628 57.9186 5.42616 57.9186 5.42616C57.9186 5.42616 62.1275 5.61251 59.0859 2.52581C56.0444 -0.560885 56.3824 -0.0700963 55.8601 1.22742Z" fill="#95BA72"/>
<path d="M24.2644 1.22742C23.7422 2.52494 22.6704 2.98008 23.097 4.12777C23.5686 5.39628 26.3229 5.42616 26.3229 5.42616C26.3229 5.42616 30.5318 5.61251 27.4902 2.52581C24.4487 -0.560885 24.7867 -0.0700963 24.2644 1.22742Z" fill="#95BA72"/>
<path d="M0 18H95V23C95 34.0457 86.0457 43 75 43H20C8.9543 43 0 34.0457 0 23V18Z" fill="#BBA587"/>
<path d="M82 35L95 18V23C95 34.0457 86.0457 43 75 43H60L82 35Z" fill="#A7947A"/>
</svg>
