<svg width="60" height="66" viewBox="0 0 60 66" fill="none" xmlns="http://www.w3.org/2000/svg">
<path d="M17.7385 8.79827C24.1013 1.27867 34.8987 2.62834 49.3594 8.79827C63.8202 14.9682 49.3594 65.0989 49.3594 65.0989H17.7385C17.7385 65.0989 11.3758 16.3179 17.7385 8.79827Z" fill="#57452C"/>
<path d="M15.2319 39.8408C17.6099 46.9748 13.3038 52.0423 27.7646 57.5793C42.2254 63.1164 49.2951 65.0989 49.2951 65.0989H17.6742C17.6742 65.0989 15.0113 41.3833 15.2319 39.8408C15.4526 38.2983 12.8539 32.7068 15.2319 39.8408Z" fill="#A28359"/>
<path d="M27.9577 42.1941C27.9577 46.3119 25.8055 47.9388 23.1507 47.9388C20.496 47.9388 18.3438 46.3119 18.3438 42.1941C18.3438 38.0763 17.9076 34.2493 20.5624 34.2493C23.2172 34.2493 27.9577 38.0763 27.9577 42.1941Z" fill="#CB6464"/>
<path d="M26.8969 41.9617C26.8969 45.2095 25.2136 46.4928 23.1371 46.4928C21.0606 46.4928 19.3773 45.2095 19.3773 41.9617C19.3773 38.7139 19.0361 35.6954 21.1126 35.6954C23.1891 35.6954 26.8969 38.7139 26.8969 41.9617Z" fill="#F3CFCF"/>
<path d="M9.32715 20.6982C24.0934 26.8651 27.9575 20.6982 27.9575 20.6982V36.6937C27.9575 36.6937 19.1943 46.8113 9.32715 36.6937C-0.540034 26.576 -5.4391 14.5313 9.32715 20.6982Z" fill="#57452C"/>
<path d="M3.95261 19.4993C3.95261 20.2979 2.54402 21.9094 1.63889 21.9094C0.733755 21.9094 0 21.262 0 20.4633C0 19.6647 1.02297 18.728 1.9281 18.728C2.83324 18.728 3.95261 18.7006 3.95261 19.4993Z" fill="#A64848"/>
<circle cx="30.2714" cy="16.7036" r="1.9281" fill="#5F5F5F"/>
<path d="M31.4282 16.5107C31.4282 16.3204 31.3773 16.1331 31.2802 15.9653C31.183 15.7976 31.0425 15.6545 30.8712 15.5488C30.6998 15.4431 30.5028 15.378 30.2977 15.3594C30.0926 15.3407 29.8857 15.3691 29.6953 15.4419C29.5049 15.5147 29.3369 15.6297 29.2061 15.7768C29.0754 15.9238 28.9859 16.0984 28.9457 16.285C28.9055 16.4716 28.9158 16.6644 28.9756 16.8465C29.0354 17.0286 29.143 17.1942 29.2887 17.3287L30.1749 16.5107H31.4282Z" fill="#1EB9BC"/>
<path d="M29.6538 17.5407C29.8102 17.6491 29.9931 17.714 30.1863 17.7298C30.3796 17.7455 30.5772 17.7115 30.7617 17.6309C30.9462 17.5503 31.1118 17.4254 31.244 17.2675C31.3762 17.1095 31.4708 16.9233 31.5194 16.7254C31.568 16.5274 31.5692 16.3238 31.5228 16.1325C31.4764 15.9413 31.3839 15.7683 31.2534 15.629C31.123 15.4897 30.9586 15.3882 30.7749 15.3337C30.5912 15.2792 30.3938 15.2732 30.2002 15.3164L30.3677 16.5107L29.6538 17.5407Z" fill="#DEE8EB"/>
<rect x="28.4072" y="13.6284" width="0.771241" height="5.78431" rx="0.385621" transform="rotate(-53.992 28.4072 13.6284)" fill="#2A2621"/>
<path d="M52.3282 57.1555C48.3622 49.3204 45.999 46.6089 45.999 46.6089L45.5073 50.0592C45.5073 50.0592 56.2942 64.9906 52.3282 57.1555Z" fill="#57452C" stroke="#57452C"/>
<path d="M53.4654 52.4164C49.4994 44.5813 47.1362 41.8698 47.1362 41.8698L46.6445 45.3201C46.6445 45.3201 57.4314 60.2515 53.4654 52.4164Z" fill="#57452C" stroke="#57452C"/>
<path d="M54.2239 46.9189C50.258 39.0839 47.8948 36.3724 47.8948 36.3724L47.403 39.8226C47.403 39.8226 58.1899 54.754 54.2239 46.9189Z" fill="#57452C" stroke="#57452C"/>
<path d="M54.2668 40.597C50.7299 33.6095 48.6223 31.1914 48.6223 31.1914L48.1838 34.2684C48.1838 34.2684 57.8038 47.5845 54.2668 40.597Z" fill="#57452C" stroke="#57452C"/>
<path d="M32.6882 3.39343C26.4281 8.09937 24.4164 10.5978 24.4164 10.5978L27.5227 10.4907C27.5227 10.4907 38.9484 -1.31252 32.6882 3.39343Z" fill="#57452C" stroke="#57452C"/>
<path d="M37.0484 3.96209C30.7882 8.66803 28.7765 11.1665 28.7765 11.1665L31.8828 11.0594C31.8828 11.0594 43.3085 -0.743851 37.0484 3.96209Z" fill="#57452C" stroke="#57452C"/>
<path d="M42.8255 5.6771C35.8643 9.26545 33.4617 11.3908 33.4617 11.3908L36.5419 11.8066C36.5419 11.8066 49.7868 2.08875 42.8255 5.6771Z" fill="#57452C" stroke="#57452C"/>
<path d="M48.6349 8.29707C41.2405 10.8773 38.5645 12.646 38.5645 12.646L41.5563 13.4883C41.5563 13.4883 56.0293 5.71681 48.6349 8.29707Z" fill="#57452C" stroke="#57452C"/>
<path d="M52.6125 11.7655C44.9844 13.5396 42.1345 15.0117 42.1345 15.0117L45.019 16.1693C45.019 16.1693 60.2406 9.99147 52.6125 11.7655Z" fill="#57452C" stroke="#57452C"/>
<path d="M55.0771 15.7464C47.449 17.5205 44.5991 18.9926 44.5991 18.9926L47.4836 20.1502C47.4836 20.1502 62.7052 13.9724 55.0771 15.7464Z" fill="#57452C" stroke="#57452C"/>
<path d="M56.8572 22.3605C49.0471 21.7796 45.8879 22.3351 45.8879 22.3351L48.2961 24.3C48.2961 24.3 64.6673 22.9414 56.8572 22.3605Z" fill="#57452C" stroke="#57452C"/>
<path d="M50.4324 60.9469C46.4664 53.1118 44.1033 50.4003 44.1033 50.4003L43.6115 53.8506C43.6115 53.8506 54.3984 68.782 50.4324 60.9469Z" fill="#57452C" stroke="#57452C"/>
<path d="M46.8234 62.3888C43.8122 56.4399 42.0179 54.3812 42.0179 54.3812L41.6446 57.0008C41.6446 57.0008 49.8346 68.3376 46.8234 62.3888Z" fill="#57452C" stroke="#57452C"/>
<path d="M42.4348 63.0997C40.1543 58.5943 38.7954 57.0352 38.7954 57.0352L38.5126 59.0192C38.5126 59.0192 44.7154 67.6051 42.4348 63.0997Z" fill="#57452C" stroke="#57452C"/>
</svg>
