<svg width="176" height="157" viewBox="0 0 176 157" fill="none" xmlns="http://www.w3.org/2000/svg">
<path d="M22.4561 89.5984C-9.64149 104.212 92.156 122.805 83.4481 95.2724C74.7402 67.7401 69.0925 49.8837 69.0925 49.8837C69.0925 49.8837 54.5538 74.9853 22.4561 89.5984Z" fill="#2869CB"/>
<line y1="-1.5" x2="89.6522" y2="-1.5" transform="matrix(0.301558 0.953448 0.953448 -0.301558 71.0964 48.5635)" stroke="#5E310F" stroke-width="3"/>
<path d="M94.1115 36.6663C58.8483 36.1068 142.844 96.5486 146.781 67.9418C150.718 39.335 153.271 20.7816 153.271 20.7816C153.271 20.7816 129.375 37.2258 94.1115 36.6663Z" fill="#BD6AC1"/>
<line y1="-1.5" x2="89.6522" y2="-1.5" transform="matrix(-0.136342 0.990662 0.990662 0.136342 155.648 20.4481)" stroke="#5E310F" stroke-width="3"/>
<path d="M62.9662 60.5606C28.2557 66.8042 122.321 109.934 120.674 81.1048C119.027 52.2754 117.958 33.5775 117.958 33.5775C117.958 33.5775 97.6767 54.317 62.9662 60.5606Z" fill="#F02B2E"/>
<line y1="-1.5" x2="89.6522" y2="-1.5" transform="matrix(0.0570397 0.998372 0.998372 -0.0570397 120.226 32.7925)" stroke="#5E310F" stroke-width="3"/>
</svg>
