<svg width="176" height="157" viewBox="0 0 176 157" fill="none" xmlns="http://www.w3.org/2000/svg">
<path d="M153.41 89.8355C185.508 104.449 83.7104 123.042 92.4184 95.5094C101.126 67.9772 106.774 50.1207 106.774 50.1207C106.774 50.1207 121.313 75.2224 153.41 89.8355Z" fill="#2869CB"/>
<line x1="106.2" y1="49.2529" x2="79.1647" y2="134.732" stroke="#5E310F" stroke-width="3"/>
<path d="M81.7551 36.9033C117.018 36.3438 33.0229 96.7857 29.0858 68.1789C25.1487 39.572 22.5952 21.0186 22.5952 21.0186C22.5952 21.0186 46.492 37.4628 81.7551 36.9033Z" fill="#BD6AC1"/>
<line x1="21.7047" y1="20.4806" x2="33.9282" y2="109.296" stroke="#5E310F" stroke-width="3"/>
<path d="M112.9 60.7977C147.611 67.0413 53.5456 110.171 55.1927 81.3419C56.8398 52.5124 57.9081 33.8146 57.9081 33.8146C57.9081 33.8146 78.1896 54.554 112.9 60.7977Z" fill="#F02B2E"/>
<line x1="57.1379" y1="33.1152" x2="52.0242" y2="122.621" stroke="#5E310F" stroke-width="3"/>
</svg>
