<svg width="362" height="372" viewBox="0 0 362 372" fill="none" xmlns="http://www.w3.org/2000/svg">
<path d="M73.8552 156.163C120.71 148.327 216.51 60.9195 284.923 110.267C346.368 154.588 331 253 326.145 299.837C321.29 346.673 223.072 311.918 223.072 311.918C223.072 311.918 122 417 120 324C118 231 27 164 73.8552 156.163Z" fill="#AFD78A"/>
<path d="M233.466 136.818C233.466 136.818 261.144 150 254.572 184C248 218 283.307 244.67 297 268C324 314 305.466 320.818 305.466 320.818" stroke="#8DCB52" stroke-width="4"/>
<path d="M211.466 140.818C211.466 140.818 239.144 154 232.572 188C226 222 261.307 248.67 275 272C302 318 283.466 324.818 283.466 324.818" stroke="#8DCB52" stroke-width="4"/>
<path d="M121.335 160.852C121.335 160.852 107.126 188.018 132.805 211.252C158.484 234.485 146.279 277.016 149.347 303.893C155.395 356.888 174.308 351.204 174.308 351.204" stroke="#8DCB52" stroke-width="4"/>
<path d="M326.969 120.098C320.555 88.2486 298.499 60.9065 265.651 44.0869C232.804 27.2672 191.856 22.3479 151.817 30.411C111.777 38.4741 75.9254 58.8591 52.1484 87.0817C28.3714 115.304 18.6169 149.052 25.0307 180.902L176 150.5L326.969 120.098Z" fill="#797267"/>
<path d="M59.0873 210.741C62.718 219.761 70.1688 222.925 67.2029 230.904C63.9247 239.722 44.7771 239.93 44.7771 239.93C44.7771 239.93 15.5171 241.225 36.6615 219.767C57.806 198.308 55.4565 201.72 59.0873 210.741Z" fill="#AFD78A"/>
<path d="M98.7433 230.481C100.562 234.998 104.293 236.583 102.808 240.578C101.166 244.995 91.5769 245.099 91.5769 245.099C91.5769 245.099 76.9236 245.747 87.5126 235.001C98.1016 224.255 96.9251 225.964 98.7433 230.481Z" fill="#AFD78A"/>
<path d="M343.106 239.481C341.287 243.998 337.556 245.583 339.041 249.578C340.683 253.995 350.272 254.099 350.272 254.099C350.272 254.099 364.925 254.747 354.336 244.001C343.747 233.255 344.924 234.964 343.106 239.481Z" fill="#AFD78A"/>
<ellipse cx="41.5" cy="228.5" rx="3.5" ry="4.5" transform="rotate(42.2073 41.5 228.5)" fill="#DC685B"/>
<ellipse cx="291.5" cy="158.5" rx="3.5" ry="4.5" transform="rotate(42.2073 291.5 158.5)" fill="#DC685B"/>
<ellipse cx="167.3" cy="231.141" rx="5.1263" ry="6.59096" transform="rotate(42.2073 167.3 231.141)" fill="#DC685B"/>
<path d="M266.854 267.029C265.623 267.244 264.453 267.058 263.513 266.498C262.574 265.937 261.913 265.032 261.626 263.911C261.34 262.79 261.441 261.512 261.917 260.261C262.393 259.009 263.218 257.85 264.274 256.949C265.33 256.047 266.562 255.451 267.793 255.246C269.023 255.041 270.189 255.237 271.122 255.806C272.055 256.376 272.707 257.289 272.984 258.415C273.261 259.54 273.149 260.82 272.664 262.07L267.3 261.141L266.854 267.029Z" fill="#DC685B"/>
<path d="M328.46 120.343C324.583 100.441 314.557 82.0594 299.279 66.8477C284.002 51.636 263.952 40.0699 240.927 33.1869C217.903 26.3038 192.624 24.3191 167.359 27.4108C142.094 30.5025 117.632 38.5739 96.1684 50.901C96.1684 50.901 149.77 56.5112 169.527 54.0936C189.283 51.676 209.05 53.228 227.054 58.6102C245.058 63.9925 260.737 73.0367 272.683 84.9316C284.629 96.8266 292.47 111.2 295.501 126.763L328.46 120.343Z" fill="#6C6358"/>
</svg>
