<svg width="127" height="88" viewBox="0 0 127 88" fill="none" xmlns="http://www.w3.org/2000/svg">
<path d="M9.65152 20.4512C20.307 0.515693 112.108 12.4127 117.845 20.4512C123.583 28.4897 117.845 48.4252 117.845 48.4252H9.65152C9.65152 48.4252 -1.00392 40.3867 9.65152 20.4512Z" fill="#95BA72"/>
<path d="M0.00180378 37.164C0.00180494 50.4683 6.64594 63.2277 18.4726 72.6352C30.2992 82.0428 46.3396 87.3279 63.065 87.3279C79.7904 87.3279 95.8307 82.0428 107.657 72.6352C119.484 63.2277 126.128 50.4683 126.128 37.164L63.065 37.164L0.00180378 37.164Z" fill="#6B6358"/>
<path d="M-3.4903e-05 37.164C-3.41772e-05 45.4672 2.59105 53.6406 7.54078 60.951C12.4905 68.2614 19.6441 74.4801 28.3598 79.0493C37.0755 83.6186 47.0808 86.3954 57.4781 87.1308C67.8755 87.8661 78.3397 86.537 87.9321 83.2626C87.9321 83.2626 66.8262 76.811 58.6959 76.236C50.5656 75.661 42.7419 73.4896 35.9265 69.9166C29.1112 66.3437 23.5174 61.4809 19.6469 55.7645C15.7764 50.0481 13.7503 43.6568 13.7503 37.164L-3.4903e-05 37.164Z" fill="#46413A"/>
<ellipse cx="107.086" cy="30.6119" rx="1.43325" ry="1.84276" transform="rotate(42.2073 107.086 30.6119)" fill="#DC685B"/>
<path d="M43.3491 23.0479C42.8448 23.1361 42.3659 23.06 41.9812 22.8305C41.5965 22.601 41.3259 22.2301 41.2084 21.7711C41.091 21.3121 41.1327 20.7887 41.3275 20.2764C41.5224 19.764 41.8603 19.2891 42.2927 18.9201C42.7251 18.5511 43.2296 18.3069 43.7336 18.2229C44.2375 18.1388 44.7149 18.2192 45.0969 18.4524C45.479 18.6856 45.746 19.0595 45.8595 19.5205C45.973 19.9814 45.9271 20.5055 45.7285 21.0172L43.5317 20.637L43.3491 23.0479Z" fill="#DC685B"/>
<path d="M65.4621 31.238C64.9579 31.3261 64.4789 31.25 64.0942 31.0206C63.7095 30.7911 63.4389 30.4202 63.3215 29.9612C63.204 29.5022 63.2457 28.9788 63.4406 28.4664C63.6354 27.9541 63.9734 27.4792 64.4058 27.1102C64.8382 26.7411 65.3427 26.497 65.8466 26.4129C66.3505 26.3289 66.8279 26.4092 67.21 26.6424C67.592 26.8756 67.859 27.2496 67.9725 27.7105C68.086 28.1715 68.0401 28.6955 67.8415 29.2072L65.6448 28.8271L65.4621 31.238Z" fill="#DC685B"/>
<path d="M99.1442 11.3576C98.3997 13.2074 96.8717 13.8563 97.4799 15.4925C98.1522 17.301 102.079 17.3436 102.079 17.3436C102.079 17.3436 108.079 17.6093 103.743 13.2086C99.407 8.80803 99.8888 9.50773 99.1442 11.3576Z" fill="#95BA72"/>
<path d="M74.5742 7.26248C73.8296 9.11231 72.3016 9.76118 72.9098 11.3974C73.5821 13.2059 77.5088 13.2485 77.5088 13.2485C77.5088 13.2485 83.5093 13.5142 79.1731 9.11355C74.8369 4.71294 75.3187 5.41264 74.5742 7.26248Z" fill="#95BA72"/>
<path d="M29.529 7.26248C28.7844 9.11231 27.2564 9.76118 27.8647 11.3974C28.537 13.2059 32.4636 13.2485 32.4636 13.2485C32.4636 13.2485 38.4642 13.5142 34.128 9.11355C29.7917 4.71294 30.2736 5.41264 29.529 7.26248Z" fill="#95BA72"/>
</svg>
