<svg width="308" height="245" viewBox="0 0 308 245" fill="none" xmlns="http://www.w3.org/2000/svg">
<path d="M23.5691 81.6876C49.5896 33.0052 273.766 62.0577 287.777 81.6876C301.788 101.318 287.777 150 287.777 150H23.5691C23.5691 150 -2.45146 130.37 23.5691 81.6876Z" fill="#AFD78A"/>
<path d="M0.00450589 122.5C0.00450873 154.989 16.2295 186.147 45.1101 209.121C73.9907 232.094 113.161 245 154.005 245C194.848 245 234.018 232.094 262.899 209.121C291.78 186.147 308.005 154.989 308.005 122.5L154.005 122.5L0.00450589 122.5Z" fill="#797267"/>
<path d="M0.000141879 122.5C0.000143651 142.777 6.32757 162.736 18.4148 180.588C30.502 198.44 47.971 213.626 69.2547 224.784C90.5385 235.942 114.971 242.723 140.361 244.519C165.752 246.314 191.305 243.069 214.73 235.073C214.73 235.073 163.189 219.318 143.335 217.914C123.481 216.51 104.376 211.207 87.7326 202.482C71.0896 193.757 57.4295 181.882 47.9778 167.922C38.5261 153.963 33.5783 138.355 33.5783 122.5L0.000141879 122.5Z" fill="#6C6358"/>
<ellipse cx="261.505" cy="106.5" rx="3.5" ry="4.5" transform="rotate(42.2073 261.505 106.5)" fill="#DC685B"/>
<path d="M105.858 88.0287C104.627 88.244 103.457 88.0581 102.518 87.4978C101.578 86.9375 100.918 86.0316 100.631 84.9108C100.344 83.7899 100.446 82.5118 100.922 81.2606C101.397 80.0095 102.223 78.8498 103.279 77.9486C104.335 77.0474 105.567 76.4513 106.797 76.246C108.028 76.0408 109.194 76.237 110.126 76.8064C111.059 77.3759 111.711 78.2892 111.989 79.4147C112.266 80.5403 112.154 81.82 111.669 83.0697L106.304 82.1414L105.858 88.0287Z" fill="#DC685B"/>
<path d="M159.858 108.029C158.627 108.244 157.457 108.058 156.518 107.498C155.578 106.937 154.918 106.032 154.631 104.911C154.344 103.79 154.446 102.512 154.922 101.261C155.397 100.009 156.223 98.8498 157.279 97.9486C158.334 97.0474 159.566 96.4513 160.797 96.246C162.028 96.0408 163.193 96.237 164.126 96.8064C165.059 97.3759 165.711 98.2892 165.989 99.4147C166.266 100.54 166.154 101.82 165.669 103.07L160.304 102.141L159.858 108.029Z" fill="#DC685B"/>
<path d="M242.11 59.4809C240.292 63.9982 236.56 65.5827 238.046 69.5784C239.687 73.9946 249.276 74.0987 249.276 74.0987C249.276 74.0987 263.93 74.7475 253.341 64.0012C242.752 53.2549 243.928 54.9636 242.11 59.4809Z" fill="#AFD78A"/>
<path d="M182.11 49.4809C180.292 53.9982 176.56 55.5827 178.046 59.5784C179.687 63.9946 189.276 64.0987 189.276 64.0987C189.276 64.0987 203.93 64.7475 193.341 54.0012C182.752 43.2549 183.928 44.9636 182.11 49.4809Z" fill="#AFD78A"/>
<path d="M72.1099 49.4809C70.2917 53.9982 66.5604 55.5827 68.0457 59.5784C69.6874 63.9946 79.2764 64.0987 79.2764 64.0987C79.2764 64.0987 93.9296 64.7475 83.3406 54.0012C72.7516 43.2549 73.9282 44.9636 72.1099 49.4809Z" fill="#AFD78A"/>
</svg>
