<svg width="95" height="93" viewBox="0 0 95 93" fill="none" xmlns="http://www.w3.org/2000/svg">
<path d="M35.7385 8.79827C42.1013 1.27867 52.8987 2.62834 67.3594 8.79827C81.8202 14.9682 67.3594 65.0989 67.3594 65.0989H35.7385C35.7385 65.0989 29.3758 16.3179 35.7385 8.79827Z" fill="#57452C"/>
<path d="M33.2319 39.8408C35.6099 46.9748 31.3038 52.0423 45.7646 57.5793C60.2254 63.1164 67.2951 65.0989 67.2951 65.0989H35.6742C35.6742 65.0989 33.0113 41.3833 33.2319 39.8408C30.8539 32.7068 33.4526 38.2983 33.2319 39.8408Z" fill="#A28359"/>
<path d="M45.9575 42.1941C45.9575 46.3118 43.8054 47.9388 41.1506 47.9388C38.4958 47.9388 36.3437 46.3118 36.3437 42.1941C36.3437 38.0763 35.9075 34.2492 38.5623 34.2492C41.2171 34.2492 45.9575 38.0763 45.9575 42.1941Z" fill="#CB6464"/>
<path d="M44.8969 41.9617C44.8969 45.2095 43.2136 46.4927 41.1371 46.4927C39.0606 46.4927 37.3773 45.2095 37.3773 41.9617C37.3773 38.7138 37.0361 35.6953 39.1126 35.6953C41.1891 35.6953 44.8969 38.7138 44.8969 41.9617Z" fill="#F3CFCF"/>
<path d="M27.3272 20.6982C42.0934 26.8651 45.9575 20.6982 45.9575 20.6982V36.6937C45.9575 36.6937 37.1943 46.8113 27.3272 36.6937C17.46 26.576 12.5609 14.5313 27.3272 20.6982Z" fill="#57452C"/>
<path d="M21.9526 19.4993C21.9526 20.2979 20.544 21.9094 19.6389 21.9094C18.7338 21.9094 18 21.262 18 20.4633C18 19.6647 19.023 18.728 19.9281 18.728C20.8332 18.728 21.9526 18.7006 21.9526 19.4993Z" fill="#A64848"/>
<circle cx="48.2714" cy="16.7035" r="1.9281" fill="#5F5F5F"/>
<path d="M49.4282 16.5107C49.4282 16.3204 49.3773 16.1331 49.2802 15.9653C49.183 15.7975 49.0425 15.6545 48.8712 15.5488C48.6998 15.4431 48.5028 15.378 48.2977 15.3594C48.0926 15.3407 47.8857 15.3691 47.6953 15.4419C47.5049 15.5147 47.3369 15.6297 47.2061 15.7768C47.0754 15.9238 46.9859 16.0984 46.9457 16.285C46.9055 16.4716 46.9158 16.6644 46.9756 16.8465C47.0354 17.0285 47.143 17.1942 47.2887 17.3287L48.1749 16.5107H49.4282Z" fill="#1EB9BC"/>
<path d="M47.6538 17.5407C47.8102 17.6491 47.9931 17.714 48.1863 17.7298C48.3796 17.7455 48.5772 17.7115 48.7617 17.6309C48.9462 17.5503 49.1118 17.4254 49.244 17.2675C49.3762 17.1095 49.4708 16.9233 49.5194 16.7253C49.568 16.5274 49.5692 16.3237 49.5228 16.1325C49.4764 15.9413 49.3839 15.7683 49.2534 15.629C49.123 15.4897 48.9586 15.3882 48.7749 15.3337C48.5912 15.2792 48.3938 15.2732 48.2002 15.3164L48.3677 16.5107L47.6538 17.5407Z" fill="#DEE8EB"/>
<rect x="46.4072" y="13.6284" width="0.771241" height="5.78431" rx="0.385621" transform="rotate(-53.992 46.4072 13.6284)" fill="#2A2621"/>
<path d="M70.3281 57.1555C66.3621 49.3205 63.9989 46.609 63.9989 46.609L63.5071 50.0592C63.5071 50.0592 74.294 64.9906 70.3281 57.1555Z" fill="#57452C" stroke="#57452C"/>
<path d="M71.4653 52.4164C67.4993 44.5813 65.1361 41.8698 65.1361 41.8698L64.6443 45.3201C64.6443 45.3201 75.4313 60.2515 71.4653 52.4164Z" fill="#57452C" stroke="#57452C"/>
<path d="M72.2237 46.9189C68.2577 39.0838 65.8945 36.3723 65.8945 36.3723L65.4028 39.8226C65.4028 39.8226 76.1897 54.754 72.2237 46.9189Z" fill="#57452C" stroke="#57452C"/>
<path d="M72.2667 40.5971C68.7298 33.6096 66.6222 31.1914 66.6222 31.1914L66.1837 34.2684C66.1837 34.2684 75.8036 47.5846 72.2667 40.5971Z" fill="#57452C" stroke="#57452C"/>
<path d="M50.6881 3.39343C44.428 8.09937 42.4163 10.5978 42.4163 10.5978L45.5225 10.4907C45.5225 10.4907 56.9483 -1.31252 50.6881 3.39343Z" fill="#57452C" stroke="#57452C"/>
<path d="M55.0482 3.9621C48.7881 8.66804 46.7764 11.1665 46.7764 11.1665L49.8826 11.0594C49.8826 11.0594 61.3084 -0.74384 55.0482 3.9621Z" fill="#57452C" stroke="#57452C"/>
<path d="M60.8254 5.67711C53.8641 9.26546 51.4616 11.3908 51.4616 11.3908L54.5418 11.8066C54.5418 11.8066 67.7866 2.08876 60.8254 5.67711Z" fill="#57452C" stroke="#57452C"/>
<path d="M66.6348 8.29707C59.2404 10.8773 56.5644 12.646 56.5644 12.646L59.5562 13.4883C59.5562 13.4883 74.0292 5.71681 66.6348 8.29707Z" fill="#57452C" stroke="#57452C"/>
<path d="M70.6124 11.7655C62.9843 13.5396 60.1343 15.0117 60.1343 15.0117L63.0188 16.1693C63.0188 16.1693 78.2405 9.99148 70.6124 11.7655Z" fill="#57452C" stroke="#57452C"/>
<path d="M73.0769 15.7464C65.4488 17.5205 62.5988 18.9926 62.5988 18.9926L65.4833 20.1502C65.4833 20.1502 80.705 13.9723 73.0769 15.7464Z" fill="#57452C" stroke="#57452C"/>
<path d="M74.8572 22.3605C67.0471 21.7796 63.8879 22.3351 63.8879 22.3351L66.2961 24.3C66.2961 24.3 82.6673 22.9414 74.8572 22.3605Z" fill="#57452C" stroke="#57452C"/>
<path d="M68.4324 60.9469C64.4664 53.1118 62.1033 50.4003 62.1033 50.4003L61.6115 53.8506C61.6115 53.8506 72.3984 68.782 68.4324 60.9469Z" fill="#57452C" stroke="#57452C"/>
<path d="M64.8234 62.3888C61.8122 56.4399 60.0179 54.3812 60.0179 54.3812L59.6446 57.0008C59.6446 57.0008 67.8346 68.3376 64.8234 62.3888Z" fill="#57452C" stroke="#57452C"/>
<path d="M60.4347 63.0997C58.1542 58.5943 56.7953 57.0352 56.7953 57.0352L56.5125 59.0192C56.5125 59.0192 62.7153 67.6052 60.4347 63.0997Z" fill="#57452C" stroke="#57452C"/>
<path d="M10.3218 60.5849C17.7958 46.7489 82.1869 55.0059 86.2114 60.5849C90.2358 66.164 86.2114 80 86.2114 80H10.3218C10.3218 80 2.84779 74.421 10.3218 60.5849Z" fill="#95BA72"/>
<ellipse cx="78.6649" cy="67.6053" rx="1.00532" ry="1.29255" transform="rotate(42.2073 78.6649 67.6053)" fill="#DC685B"/>
<path d="M33.958 62.2997C33.6043 62.3616 33.2684 62.3082 32.9985 62.1472C32.7287 61.9863 32.5389 61.7261 32.4565 61.4041C32.3741 61.0822 32.4034 60.7151 32.5401 60.3557C32.6767 59.9963 32.9138 59.6632 33.2171 59.4044C33.5204 59.1455 33.8742 58.9743 34.2277 58.9153C34.5812 58.8564 34.916 58.9127 35.184 59.0763C35.452 59.2399 35.6393 59.5022 35.7189 59.8255C35.7985 60.1488 35.7663 60.5164 35.627 60.8753L34.0862 60.6087L33.958 62.2997Z" fill="#DC685B"/>
<path d="M49.4688 68.0445C49.1151 68.1063 48.7791 68.0529 48.5093 67.892C48.2394 67.731 48.0497 67.4708 47.9673 67.1489C47.8849 66.8269 47.9141 66.4598 48.0508 66.1004C48.1875 65.7411 48.4245 65.408 48.7278 65.1491C49.0311 64.8903 49.385 64.719 49.7385 64.6601C50.0919 64.6011 50.4268 64.6575 50.6948 64.821C50.9627 64.9846 51.15 65.2469 51.2296 65.5702C51.3092 65.8935 51.2771 66.2611 51.1377 66.6201L49.5969 66.3534L49.4688 68.0445Z" fill="#DC685B"/>
<path d="M73.094 54.0998C72.5717 55.3973 71.5 55.8525 71.9266 57.0001C72.3982 58.2687 75.1524 58.2985 75.1524 58.2985C75.1524 58.2985 79.3614 58.4849 76.3198 55.3982C73.2783 52.3115 73.6163 52.8023 73.094 54.0998Z" fill="#95BA72"/>
<path d="M55.8601 51.2274C55.3379 52.5249 54.2661 52.9801 54.6927 54.1278C55.1643 55.3963 57.9186 55.4262 57.9186 55.4262C57.9186 55.4262 62.1275 55.6125 59.0859 52.5258C56.0444 49.4391 56.3824 49.9299 55.8601 51.2274Z" fill="#95BA72"/>
<path d="M24.2644 51.2274C23.7422 52.5249 22.6704 52.9801 23.097 54.1278C23.5686 55.3963 26.3229 55.4262 26.3229 55.4262C26.3229 55.4262 30.5318 55.6125 27.4902 52.5258C24.4487 49.4391 24.7867 49.9299 24.2644 51.2274Z" fill="#95BA72"/>
<path d="M0 68H95V73C95 84.0457 86.0457 93 75 93H20C8.9543 93 0 84.0457 0 73V68Z" fill="#BBA587"/>
</svg>
