<svg width="61" height="89" viewBox="0 0 61 89" fill="none" xmlns="http://www.w3.org/2000/svg">
<path d="M20.8364 34.6611C26.8757 27.5238 37.124 28.8049 50.8495 34.6611C64.575 40.5173 50.8495 88.0989 50.8495 88.0989H20.8364C20.8364 88.0989 14.7972 41.7983 20.8364 34.6611Z" fill="#57452C"/>
<path d="M18.4575 64.1251C20.7145 70.8964 16.6274 75.7062 30.3529 80.9617C44.0783 86.2172 50.7886 88.099 50.7886 88.099H20.7755C20.7755 88.099 18.248 65.5892 18.4575 64.1251C16.2004 57.3539 18.6669 62.6611 18.4575 64.1251Z" fill="#A28359"/>
<path d="M30.5361 66.3587C30.5361 70.2671 28.4934 71.8113 25.9736 71.8113C23.4538 71.8113 21.4111 70.2671 21.4111 66.3587C21.4111 62.4503 20.997 58.8179 23.5168 58.8179C26.0366 58.8179 30.5361 62.4503 30.5361 66.3587Z" fill="#CB6464"/>
<path d="M29.5294 66.1382C29.5294 69.2209 27.9316 70.4388 25.9607 70.4388C23.9899 70.4388 22.3921 69.2209 22.3921 66.1382C22.3921 63.0555 22.0683 60.1905 24.0392 60.1905C26.0101 60.1905 29.5294 63.0555 29.5294 66.1382Z" fill="#F3CFCF"/>
<path d="M12.8529 45.9559C26.8683 51.8093 30.5359 45.9559 30.5359 45.9559V61.1381C30.5359 61.1381 22.2183 70.7412 12.8529 61.1381C3.48743 51.5349 -1.16254 40.1026 12.8529 45.9559Z" fill="#57452C"/>
<path d="M7.75163 44.8179C7.75163 45.5759 6.41466 47.1055 5.55555 47.1055C4.69645 47.1055 4 46.491 4 45.7329C4 44.9749 4.97095 44.0859 5.83006 44.0859C6.68917 44.0859 7.75163 44.0598 7.75163 44.8179Z" fill="#A64848"/>
<circle cx="32.7322" cy="42.1644" r="1.83006" fill="#5F5F5F"/>
<path d="M33.8303 41.9813C33.8303 41.8007 33.782 41.6229 33.6898 41.4637C33.5976 41.3044 33.4642 41.1686 33.3016 41.0683C33.1389 40.968 32.952 40.9062 32.7573 40.8885C32.5626 40.8708 32.3662 40.8977 32.1855 40.9668C32.0048 41.0359 31.8453 41.1451 31.7212 41.2847C31.5971 41.4243 31.5122 41.59 31.474 41.7671C31.4359 41.9442 31.4456 42.1272 31.5024 42.3C31.5592 42.4728 31.6613 42.63 31.7996 42.7577L32.6407 41.9813H33.8303Z" fill="#1EB9BC"/>
<path d="M32.1461 42.959C32.2945 43.0619 32.4681 43.1235 32.6515 43.1384C32.835 43.1533 33.0225 43.1211 33.1976 43.0446C33.3727 42.968 33.53 42.8496 33.6554 42.6996C33.7809 42.5497 33.8707 42.373 33.9168 42.1851C33.963 41.9972 33.9641 41.8039 33.92 41.6224C33.876 41.4409 33.7882 41.2767 33.6644 41.1445C33.5406 41.0122 33.3846 40.9159 33.2102 40.8642C33.0358 40.8124 32.8485 40.8068 32.6647 40.8477L32.8237 41.9813L32.1461 42.959Z" fill="#DEE8EB"/>
<rect x="30.9626" y="39.2456" width="0.732025" height="5.49019" rx="0.366013" transform="rotate(-53.992 30.9626 39.2456)" fill="#2A2621"/>
<path d="M53.6674 80.5594C49.903 73.1227 47.66 70.5491 47.66 70.5491L47.1933 73.8239C47.1933 73.8239 57.4317 87.9961 53.6674 80.5594Z" fill="#57452C" stroke="#57452C"/>
<path d="M54.747 76.0613C50.9826 68.6246 48.7396 66.051 48.7396 66.051L48.2729 69.3258C48.2729 69.3258 58.5113 83.498 54.747 76.0613Z" fill="#57452C" stroke="#57452C"/>
<path d="M55.4667 70.8434C51.7024 63.4067 49.4593 60.8331 49.4593 60.8331L48.9926 64.1079C48.9926 64.1079 59.231 78.2801 55.4667 70.8434Z" fill="#57452C" stroke="#57452C"/>
<path d="M55.5075 64.843C52.1504 58.2107 50.15 55.9155 50.15 55.9155L49.7338 58.8361C49.7338 58.8361 58.8646 71.4752 55.5075 64.843Z" fill="#57452C" stroke="#57452C"/>
<path d="M35.0262 29.5311C29.0844 33.9977 27.175 36.3691 27.175 36.3691L30.1233 36.2675C30.1233 36.2675 40.968 25.0644 35.0262 29.5311Z" fill="#57452C" stroke="#57452C"/>
<path d="M39.1646 30.0708C33.2228 34.5374 31.3134 36.9089 31.3134 36.9089L34.2617 36.8072C34.2617 36.8072 45.1065 25.6041 39.1646 30.0708Z" fill="#57452C" stroke="#57452C"/>
<path d="M44.648 31.6986C38.0407 35.1045 35.7603 37.1217 35.7603 37.1217L38.6838 37.5164C38.6838 37.5164 51.2552 28.2927 44.648 31.6986Z" fill="#57452C" stroke="#57452C"/>
<path d="M50.1617 34.1853C43.1433 36.6343 40.6034 38.3131 40.6034 38.3131L43.4431 39.1125C43.4431 39.1125 57.1802 31.7362 50.1617 34.1853Z" fill="#57452C" stroke="#57452C"/>
<path d="M53.9374 37.4774C46.6972 39.1613 43.9922 40.5585 43.9922 40.5585L46.73 41.6573C46.73 41.6573 61.1777 35.7936 53.9374 37.4774Z" fill="#57452C" stroke="#57452C"/>
<path d="M56.2765 41.2559C49.0363 42.9398 46.3313 44.337 46.3313 44.337L49.0691 45.4358C49.0691 45.4358 63.5168 39.5721 56.2765 41.2559Z" fill="#57452C" stroke="#57452C"/>
<path d="M57.9661 47.5337C50.5531 46.9823 47.5545 47.5095 47.5545 47.5095L49.8402 49.3746C49.8402 49.3746 65.379 48.085 57.9661 47.5337Z" fill="#57452C" stroke="#57452C"/>
<path d="M51.8681 84.158C48.1037 76.7213 45.8607 74.1477 45.8607 74.1477L45.394 77.4226C45.394 77.4226 55.6324 91.5947 51.8681 84.158Z" fill="#57452C" stroke="#57452C"/>
<path d="M48.4425 85.5265C45.5844 79.8802 43.8814 77.9261 43.8814 77.9261L43.527 80.4126C43.527 80.4126 51.3006 91.1729 48.4425 85.5265Z" fill="#57452C" stroke="#57452C"/>
<path d="M44.2772 86.2014C42.1126 81.9251 40.8228 80.4452 40.8228 80.4452L40.5545 82.3283C40.5545 82.3283 46.4418 90.4777 44.2772 86.2014Z" fill="#57452C" stroke="#57452C"/>
<path d="M11.827 25.2966C19.4174 24.0271 34.9367 9.8673 46.0194 17.8614C55.9733 25.0413 53.4838 40.9838 52.6973 48.5712C51.9107 56.1586 35.9998 50.5284 35.9998 50.5284C35.9998 50.5284 19.6264 67.5513 19.3024 52.4856C18.9784 37.4199 4.23663 26.5661 11.827 25.2966Z" fill="#AFD78A"/>
<path d="M37.6833 22.1626C37.6833 22.1626 42.1672 24.2981 41.1025 29.806C40.0378 35.3139 45.7574 39.6345 47.9757 43.4138C52.3496 50.8657 49.3471 51.9701 49.3471 51.9701" stroke="#8DCB52" stroke-width="4"/>
<path d="M34.1196 22.8106C34.1196 22.8106 38.6035 24.9461 37.5388 30.454C36.4741 35.9619 42.1937 40.2824 44.412 44.0617C48.7859 51.5136 45.7834 52.6181 45.7834 52.6181" stroke="#8DCB52" stroke-width="4"/>
<path d="M19.5185 26.0562C19.5185 26.0562 17.2167 30.457 21.3766 34.2207C25.5365 37.9845 23.5594 44.8744 24.0564 49.2284C25.0361 57.8134 28.1 56.8926 28.1 56.8926" stroke="#8DCB52" stroke-width="4"/>
<path d="M52.8308 19.4542C51.7918 14.2946 48.2187 9.86525 42.8975 7.14052C37.5763 4.41579 30.9429 3.61887 24.4566 4.92507C17.9703 6.23127 12.1624 9.53359 8.31062 14.1056C4.45882 18.6775 2.87862 24.1447 3.91764 29.3042L28.3742 24.3792L52.8308 19.4542Z" fill="#797267"/>
<path d="M9.43461 34.1379C10.0228 35.5992 11.2298 36.1118 10.7493 37.4043C10.2183 38.8329 7.11641 38.8665 7.11641 38.8665C7.11641 38.8665 2.37636 39.0764 5.80171 35.6002C9.22705 32.1239 8.84644 32.6767 9.43461 34.1379Z" fill="#AFD78A"/>
<path d="M15.8589 37.3358C16.1534 38.0676 16.7579 38.3243 16.5173 38.9716C16.2513 39.687 14.6979 39.7039 14.6979 39.7039C14.6979 39.7039 12.3242 39.809 14.0395 38.0681C15.7549 36.3272 15.5643 36.604 15.8589 37.3358Z" fill="#AFD78A"/>
<path d="M55.4448 38.7938C55.1503 39.5255 54.5458 39.7822 54.7864 40.4295C55.0524 41.1449 56.6058 41.1618 56.6058 41.1618C56.6058 41.1618 58.9796 41.2669 57.2642 39.526C55.5488 37.7852 55.7394 38.062 55.4448 38.7938Z" fill="#AFD78A"/>
<ellipse cx="6.58551" cy="37.0149" rx="0.56699" ry="0.728987" transform="rotate(42.2073 6.58551 37.0149)" fill="#DC685B"/>
<ellipse cx="47.0848" cy="25.6751" rx="0.56699" ry="0.728987" transform="rotate(42.2073 47.0848 25.6751)" fill="#DC685B"/>
<ellipse cx="26.9647" cy="37.4428" rx="0.830446" ry="1.06772" transform="rotate(42.2073 26.9647 37.4428)" fill="#DC685B"/>
<path d="M43.0922 43.2564C42.8927 43.2913 42.7032 43.2612 42.551 43.1704C42.3988 43.0797 42.2918 42.9329 42.2453 42.7513C42.1989 42.5698 42.2153 42.3627 42.2924 42.16C42.3695 41.9573 42.5032 41.7695 42.6743 41.6235C42.8453 41.4775 43.0449 41.3809 43.2443 41.3477C43.4436 41.3144 43.6325 41.3462 43.7836 41.4385C43.9347 41.5307 44.0404 41.6787 44.0853 41.861C44.1302 42.0433 44.112 42.2506 44.0334 42.4531L43.1644 42.3027L43.0922 43.2564Z" fill="#DC685B"/>
<path d="M53.0723 19.4939C52.4443 16.2697 50.82 13.292 48.3451 10.8277C45.8702 8.36346 42.6222 6.48978 38.8923 5.37475C35.1624 4.25971 31.0674 3.9382 26.9745 4.43904C22.8816 4.93989 18.9188 6.24743 15.4417 8.24438C15.4417 8.24438 24.1251 9.15322 27.3256 8.76157C30.5261 8.36993 33.7282 8.62135 36.6449 9.49326C39.5615 10.3652 42.1014 11.8303 44.0366 13.7573C45.9719 15.6842 47.242 18.0127 47.7331 20.5338L53.0723 19.4939Z" fill="#6C6358"/>
</svg>
