<svg width="87" height="95" viewBox="0 0 87 95" fill="none" xmlns="http://www.w3.org/2000/svg">
<path d="M25.8561 12.8246C35.1307 1.86382 50.8692 3.83114 71.9477 12.8246C93.0261 21.8181 71.9477 94.89 71.9477 94.89H25.8561C25.8561 94.89 16.5816 23.7854 25.8561 12.8246Z" fill="#57452C"/>
<path d="M22.2026 58.073C25.6688 68.4717 19.3922 75.8583 40.4706 83.9293C61.549 92.0002 71.854 94.8901 71.854 94.8901H25.7625C25.7625 94.8901 21.881 60.3214 22.2026 58.073C22.5242 55.8247 18.7364 47.6744 22.2026 58.073Z" fill="#A28359"/>
<path d="M40.7516 61.5033C40.7516 67.5055 37.6146 69.8769 33.7449 69.8769C29.8752 69.8769 26.7382 67.5055 26.7382 61.5033C26.7382 55.5011 26.1024 49.9227 29.9721 49.9227C33.8418 49.9227 40.7516 55.5011 40.7516 61.5033Z" fill="#CB6464"/>
<path d="M39.2058 61.1646C39.2058 65.8987 36.7522 67.7691 33.7254 67.7691C30.6987 67.7691 28.245 65.8987 28.245 61.1646C28.245 56.4304 27.7477 52.0306 30.7744 52.0306C33.8012 52.0306 39.2058 56.4304 39.2058 61.1646Z" fill="#F3CFCF"/>
<path d="M13.5955 30.1703C35.1192 39.1594 40.7517 30.1703 40.7517 30.1703V53.4857C40.7517 53.4857 27.9782 68.2335 13.5955 53.4857C-0.78717 38.738 -7.92819 21.1812 13.5955 30.1703Z" fill="#57452C"/>
<path d="M5.76144 28.4227C5.76144 29.5868 3.70824 31.9358 2.38889 31.9358C1.06954 31.9358 0 30.992 0 29.8279C0 28.6638 1.49111 27.2985 2.81046 27.2985C4.12981 27.2985 5.76144 27.2586 5.76144 28.4227Z" fill="#A64848"/>
<circle cx="44.1242" cy="24.3476" r="2.81046" fill="#5F5F5F"/>
<path d="M45.8105 24.0665C45.8105 23.7892 45.7364 23.5161 45.5948 23.2716C45.4531 23.027 45.2484 22.8184 44.9986 22.6644C44.7488 22.5103 44.4617 22.4155 44.1627 22.3883C43.8637 22.3611 43.5621 22.4024 43.2846 22.5085C43.007 22.6147 42.7621 22.7823 42.5715 22.9967C42.3809 23.2111 42.2506 23.4655 42.192 23.7375C42.1334 24.0095 42.1483 24.2906 42.2355 24.556C42.3227 24.8213 42.4795 25.0628 42.6919 25.2588L43.9837 24.0665H45.8105Z" fill="#1EB9BC"/>
<path d="M43.224 25.5679C43.4519 25.7259 43.7185 25.8205 44.0002 25.8434C44.2819 25.8664 44.5699 25.8169 44.8388 25.6993C45.1077 25.5818 45.3492 25.3998 45.5419 25.1696C45.7345 24.9394 45.8724 24.6679 45.9433 24.3794C46.0142 24.0908 46.0159 23.794 45.9482 23.5153C45.8806 23.2365 45.7458 22.9844 45.5556 22.7813C45.3655 22.5782 45.1259 22.4304 44.8581 22.3509C44.5903 22.2714 44.3026 22.2627 44.0204 22.3256L44.2646 24.0665L43.224 25.5679Z" fill="#DEE8EB"/>
<rect x="41.4072" y="19.8652" width="1.12418" height="8.43138" rx="0.562092" transform="rotate(-53.992 41.4072 19.8652)" fill="#2A2621"/>
<path d="M76.2748 83.3116C70.4939 71.8909 67.0492 67.9386 67.0492 67.9386L66.3324 72.9678C66.3324 72.9678 82.0557 94.7322 76.2748 83.3116Z" fill="#57452C" stroke="#57452C"/>
<path d="M77.9328 76.4036C72.1518 64.9829 68.7072 61.0306 68.7072 61.0306L67.9904 66.0598C67.9904 66.0598 83.7137 87.8243 77.9328 76.4036Z" fill="#57452C" stroke="#57452C"/>
<path d="M79.038 68.3904C73.2571 56.9697 69.8124 53.0173 69.8124 53.0173L69.0956 58.0466C69.0956 58.0466 84.8189 79.811 79.038 68.3904Z" fill="#57452C" stroke="#57452C"/>
<path d="M79.1009 59.1754C73.9453 48.9902 70.8733 45.4655 70.8733 45.4655L70.2341 49.9506C70.2341 49.9506 84.2564 69.3606 79.1009 59.1754Z" fill="#57452C" stroke="#57452C"/>
<path d="M47.6472 4.94635C38.5222 11.8059 35.5898 15.4477 35.5898 15.4477L40.1176 15.2916C40.1176 15.2916 56.7721 -1.91316 47.6472 4.94635Z" fill="#57452C" stroke="#57452C"/>
<path d="M54.0025 5.77527C44.8775 12.6348 41.9452 16.2766 41.9452 16.2766L46.473 16.1205C46.473 16.1205 63.1274 -1.08424 54.0025 5.77527Z" fill="#57452C" stroke="#57452C"/>
<path d="M62.4237 8.27512C52.2768 13.5056 48.7748 16.6035 48.7748 16.6035L53.2645 17.2097C53.2645 17.2097 72.5706 3.04464 62.4237 8.27512Z" fill="#57452C" stroke="#57452C"/>
<path d="M70.8916 12.094C60.1133 15.8551 56.2127 18.4332 56.2127 18.4332L60.5737 19.6609C60.5737 19.6609 81.67 8.33299 70.8916 12.094Z" fill="#57452C" stroke="#57452C"/>
<path d="M76.6896 17.1498C65.5706 19.7357 61.4165 21.8815 61.4165 21.8815L65.621 23.5689C65.621 23.5689 87.8085 14.5639 76.6896 17.1498Z" fill="#57452C" stroke="#57452C"/>
<path d="M80.2817 22.9524C69.1628 25.5383 65.0087 27.6841 65.0087 27.6841L69.2132 29.3715C69.2132 29.3715 91.4007 20.3665 80.2817 22.9524Z" fill="#57452C" stroke="#57452C"/>
<path d="M82.8769 32.5933C71.4926 31.7466 66.8876 32.5562 66.8876 32.5562L70.3979 35.4204C70.3979 35.4204 94.2611 33.4401 82.8769 32.5933Z" fill="#57452C" stroke="#57452C"/>
<path d="M73.5116 88.8379C67.7307 77.4173 64.286 73.4649 64.286 73.4649L63.5692 78.4941C63.5692 78.4941 79.2925 100.259 73.5116 88.8379Z" fill="#57452C" stroke="#57452C"/>
<path d="M68.2511 90.9397C63.8619 82.2684 61.2465 79.2676 61.2465 79.2676L60.7023 83.0861C60.7023 83.0861 72.6403 99.6109 68.2511 90.9397Z" fill="#57452C" stroke="#57452C"/>
<path d="M61.854 91.976C58.5298 85.4088 56.549 83.1361 56.549 83.1361L56.1368 86.028C56.1368 86.028 65.1782 98.5432 61.854 91.976Z" fill="#57452C" stroke="#57452C"/>
</svg>
