<svg width="307" height="338" viewBox="0 0 307 338" fill="none" xmlns="http://www.w3.org/2000/svg">
<path d="M91.9999 46C125 6.99995 181 13.9999 256 46C331 78 256 338 256 338H91.9999C91.9999 338 58.9999 85 91.9999 46Z" fill="#C0B09A"/>
<path d="M79 207C91.3333 244 69.0001 270.282 144 299C219 327.718 255.667 338 255.667 338H91.6667C91.6667 338 77.8556 215 79 207C80.1444 199 66.6667 170 79 207Z" fill="#E2D0B7"/>
<path d="M145 219.205C145 240.562 133.838 249 120.069 249C106.3 249 95.1384 240.562 95.1384 219.205C95.1384 197.849 92.876 178 106.645 178C120.414 178 145 197.849 145 219.205Z" fill="#D9ABAB"/>
<path d="M139.5 218C139.5 234.845 130.77 241.5 120 241.5C109.23 241.5 100.5 234.845 100.5 218C100.5 201.155 98.7305 185.5 109.5 185.5C120.27 185.5 139.5 201.155 139.5 218Z" fill="#F3CFCF"/>
<path d="M48.3748 107.718C124.959 139.703 145 107.718 145 107.718V190.678C145 190.678 99.5504 243.152 48.3748 190.678C-2.80086 138.203 -28.2096 75.7339 48.3748 107.718Z" fill="#C0B09A"/>
<path d="M20.5 101.5C20.5 105.642 13.1944 114 8.5 114C3.80558 114 0 110.642 0 106.5C0 102.358 5.30558 97.5 10 97.5C14.6944 97.5 20.5 97.3578 20.5 101.5Z" fill="#EFCBCB"/>
<circle cx="157" cy="87" r="10" fill="#5F5F5F"/>
<path d="M163 86C163 85.0132 162.736 84.0418 162.232 83.1716C161.729 82.3014 161 81.5593 160.111 81.0111C159.222 80.463 158.201 80.1256 157.137 80.0288C156.073 79.9321 155 80.0791 154.013 80.4567C153.025 80.8343 152.154 81.4309 151.475 82.1936C150.797 82.9563 150.333 83.8617 150.125 84.8294C149.916 85.7972 149.97 86.7974 150.28 87.7417C150.59 88.6859 151.148 89.5449 151.904 90.2426L156.5 86H163Z" fill="#868686"/>
<path d="M153.797 91.3422C154.608 91.9043 155.557 92.241 156.559 92.3226C157.561 92.4042 158.586 92.228 159.543 91.8098C160.5 91.3916 161.359 90.7442 162.045 89.925C162.73 89.1058 163.221 88.14 163.473 87.1132C163.725 86.0865 163.731 85.0304 163.491 84.0386C163.25 83.0467 162.77 82.1498 162.094 81.4271C161.417 80.7044 160.565 80.1784 159.612 79.8955C158.659 79.6127 157.635 79.5818 156.631 79.8056L157.5 85.9999L153.797 91.3422Z" fill="#DEE8EB"/>
<rect x="147.332" y="71.0512" width="4" height="30" rx="2" transform="rotate(-53.992 147.332 71.0512)" fill="#8A837A"/>
<path d="M271.397 296.802C250.828 256.166 238.571 242.103 238.571 242.103L236.021 259.998C236.021 259.998 291.966 337.438 271.397 296.802Z" fill="#C0B09A" stroke="#C0B09A"/>
<path d="M277.296 272.223C256.727 231.586 244.47 217.523 244.47 217.523L241.92 235.418C241.92 235.418 297.865 312.859 277.296 272.223Z" fill="#C0B09A" stroke="#C0B09A"/>
<path d="M281.229 243.71C260.659 203.074 248.403 189.011 248.403 189.011L245.852 206.906C245.852 206.906 301.798 284.347 281.229 243.71Z" fill="#C0B09A" stroke="#C0B09A"/>
<path d="M281.452 210.922C263.108 174.682 252.177 162.14 252.177 162.14L249.903 178.099C249.903 178.099 299.796 247.163 281.452 210.922Z" fill="#C0B09A" stroke="#C0B09A"/>
<path d="M169.536 17.9679C137.068 42.375 126.634 55.3331 126.634 55.3331L142.745 54.7777C142.745 54.7777 202.004 -6.43919 169.536 17.9679Z" fill="#C0B09A" stroke="#C0B09A"/>
<path d="M192.149 20.9175C159.681 45.3246 149.247 58.2826 149.247 58.2826L165.358 57.7273C165.358 57.7273 224.617 -3.48965 192.149 20.9175Z" fill="#C0B09A" stroke="#C0B09A"/>
<path d="M222.113 29.8122C186.009 48.423 173.548 59.4458 173.548 59.4458L189.523 61.6026C189.523 61.6026 258.217 11.2014 222.113 29.8122Z" fill="#C0B09A" stroke="#C0B09A"/>
<path d="M252.243 43.4004C213.892 56.7828 200.013 65.9559 200.013 65.9559L215.53 70.3242C215.53 70.3242 290.593 30.0181 252.243 43.4004Z" fill="#C0B09A" stroke="#C0B09A"/>
<path d="M272.872 61.3894C233.31 70.5904 218.529 78.2255 218.529 78.2255L233.489 84.2294C233.489 84.2294 312.435 52.1883 272.872 61.3894Z" fill="#C0B09A" stroke="#C0B09A"/>
<path d="M285.654 82.0361C246.091 91.2372 231.31 98.8723 231.31 98.8723L246.27 104.876C246.27 104.876 325.216 72.835 285.654 82.0361Z" fill="#C0B09A" stroke="#C0B09A"/>
<path d="M294.888 116.34C254.381 113.327 237.996 116.208 237.996 116.208L250.486 126.399C250.486 126.399 335.394 119.352 294.888 116.34Z" fill="#C0B09A" stroke="#C0B09A"/>
<path d="M261.565 316.466C240.996 275.829 228.739 261.766 228.739 261.766L226.189 279.661C226.189 279.661 282.134 357.102 261.565 316.466Z" fill="#C0B09A" stroke="#C0B09A"/>
<path d="M242.848 323.944C227.23 293.091 217.924 282.413 217.924 282.413L215.988 296C215.988 296 258.465 354.798 242.848 323.944Z" fill="#C0B09A" stroke="#C0B09A"/>
<path d="M220.086 327.631C208.258 304.264 201.21 296.178 201.21 296.178L199.743 306.468C199.743 306.468 231.914 350.998 220.086 327.631Z" fill="#C0B09A" stroke="#C0B09A"/>
</svg>
