<svg width="61" height="61" viewBox="0 0 61 61" fill="none" xmlns="http://www.w3.org/2000/svg">
<path d="M30.5 0L37.3477 21.075H59.5072L41.5798 34.1L48.4275 55.175L30.5 42.15L12.5725 55.175L19.4202 34.1L1.49278 21.075H23.6523L30.5 0Z" fill="#FFEF11"/>
<path d="M30.5 61L37.3477 39.925H59.5072L41.5798 26.9L48.4275 5.82498L30.5 18.85L12.5725 5.82498L19.4202 26.9L1.49278 39.925H23.6523L30.5 61Z" fill="#FFEF11"/>
<path d="M30 15L33.3677 25.3647H44.2658L35.4491 31.7705L38.8168 42.1353L30 35.7295L21.1832 42.1353L24.5509 31.7705L15.7342 25.3647H26.6323L30 15Z" fill="#FFBC11"/>
<path d="M30 45L33.3677 34.6353H44.2658L35.4491 28.2295L38.8168 17.8647L30 24.2705L21.1832 17.8647L24.5509 28.2295L15.7342 34.6353H26.6323L30 45Z" fill="#FFBC11"/>
</svg>
